<svg xmlns="http://www.w3.org/2000/svg" width="352.923" height="555.208" viewBox="0 0 352.923 555.208">
  <g id="bc-logo-vert" transform="translate(-361.877 -268.947)">
    <g id="benjo" transform="translate(385.222 268.947)">
      <path id="BC-DH" d="M161.249,219.214l-17.814-8.7a85.826,85.826,0,0,1-30.482,1.983q12.875-7.043,13.445-13.14c-21.314,5.027-42.4,6.115-63.4,5.4,16.8-5.673,36.689-21.23,36.689-21.23L67.055,164.844s31.376-19.56,32.333-32.743c-1.052-2.494-9.093-9.62-8.824-9.568C51.808,84.279,20.538,46.533,0,0,33.406,47.38,83.958,90.829,136.953,122.472L179.542,138.8c6.729,3.028,3.976-.013,7.288,12.44l45.078,12.2v-4.631L259.19,169.4c.47.224-17.1,13.989-37.1,29.93l2.366-5.94-1.94-6.182s.185-.958-19.588-6c-13.407-3.622-34.562-10.1-34.562-10.1l-12.7,3.85,8.04,3.776V181.2c12.141,37.742,15.017,37.769,33.163,37.087l-37.2,28.136C163.766,235.846,163.77,225.012,161.249,219.214Zm2.457-67.979,17.274,3.227-8.369-3.225-5.326-4.334-11.619-4.181ZM121.268,101.8c-7.068-12.687-10.5-19.5-33.059-76.888,21.264,41.534,47.508,79.768,72.194,99.454l-23.377-10.089Z" fill="#d72228"/>
      <path id="Path_112" data-name="Path 112" d="M129.6,259.2a130.63,130.63,0,0,1-26.119-2.633,128.9,128.9,0,0,1-46.342-19.5,129.979,129.979,0,0,1-46.954-57.019,128.96,128.96,0,0,1-7.552-24.328,130.891,130.891,0,0,1,0-52.239,128.885,128.885,0,0,1,18.736-45.2L31.642,70.44A114.433,114.433,0,1,0,79.53,26.68L73.32,12.826c1.93-.932,3.892-1.82,5.833-2.641a128.959,128.959,0,0,1,24.328-7.552,130.891,130.891,0,0,1,52.239,0,128.9,128.9,0,0,1,46.342,19.5,129.98,129.98,0,0,1,46.954,57.019,128.961,128.961,0,0,1,7.552,24.328,130.892,130.892,0,0,1,0,52.239,128.9,128.9,0,0,1-19.5,46.342,129.979,129.979,0,0,1-57.019,46.954,128.96,128.96,0,0,1-24.328,7.552A130.631,130.631,0,0,1,129.6,259.2ZM49.466,47.942h0l-10.68-10.8A130.706,130.706,0,0,1,57.139,22.134c2.078-1.4,4.231-2.768,6.4-4.055L69.7,32.093A115.362,115.362,0,0,0,49.467,47.941Z" transform="translate(28.8 28.8)" fill="#d72228"/>
    </g>
    <g id="text">
      <g id="Group_16" data-name="Group 16">
        <path id="Path_137" data-name="Path 137" d="M85.405-13.11h-59q-4.56,0-6.413-1.805t-1.853-5.8v-8.55a7.631,7.631,0,0,1,1.9-5.557q1.9-1.947,6.46-1.948h58.9V-49.78H20.045a17.61,17.61,0,0,0-5.51.9A16.644,16.644,0,0,0,9.6-46.312a13.4,13.4,0,0,0-3.562,4.085A10.667,10.667,0,0,0,4.655-36.86v24.035A11.214,11.214,0,0,0,5.938-7.41a12.216,12.216,0,0,0,3.42,3.99A16.632,16.632,0,0,0,14.25-.9a18.5,18.5,0,0,0,5.795.9h65.36Zm90.06-23.75a10.667,10.667,0,0,0-1.378-5.368,13.4,13.4,0,0,0-3.562-4.085,16.644,16.644,0,0,0-4.94-2.565,17.61,17.61,0,0,0-5.51-.9H110.1a17.61,17.61,0,0,0-5.51.9,16.644,16.644,0,0,0-4.94,2.565,13.4,13.4,0,0,0-3.562,4.085,10.667,10.667,0,0,0-1.378,5.368v24.035A11.214,11.214,0,0,0,96-7.41a12.216,12.216,0,0,0,3.42,3.99A16.632,16.632,0,0,0,104.31-.9,18.5,18.5,0,0,0,110.1,0h49.97a18.637,18.637,0,0,0,5.747-.9,16.516,16.516,0,0,0,4.94-2.518,12.216,12.216,0,0,0,3.42-3.99,11.214,11.214,0,0,0,1.283-5.415Zm-21.85.095q4.56,0,6.46,1.948a7.631,7.631,0,0,1,1.9,5.557v8.55q0,3.8-1.853,5.7t-6.413,1.9H116.47q-4.56,0-6.413-1.805t-1.852-5.8v-8.55a7.631,7.631,0,0,1,1.9-5.557q1.9-1.947,6.46-1.948Zm111.91,23.94V-36.86a10.667,10.667,0,0,0-1.378-5.368,13.4,13.4,0,0,0-3.562-4.085,16.644,16.644,0,0,0-4.94-2.565,17.61,17.61,0,0,0-5.51-.9h-65.36v13.015h58.9q4.56,0,6.46,1.948a7.631,7.631,0,0,1,1.9,5.557v8.55q0,3.8-1.853,5.7t-6.413,1.9h-45.5V-31.16h-13.49V0h65.36a18.637,18.637,0,0,0,5.747-.9,16.516,16.516,0,0,0,4.94-2.518,12.216,12.216,0,0,0,3.42-3.99A11.214,11.214,0,0,0,265.525-12.825Zm9.31,0a11.214,11.214,0,0,0,1.283,5.415,12.215,12.215,0,0,0,3.42,3.99A16.631,16.631,0,0,0,284.43-.9a18.5,18.5,0,0,0,5.8.9h65.36V-13.11h-67.26v-5.605h67.26V-31.16h-80.75Zm80.75-23.94V-49.78h-65.36a18.5,18.5,0,0,0-5.51.855,16.431,16.431,0,0,0-4.94,2.47,13.044,13.044,0,0,0-3.562,3.99,10.409,10.409,0,0,0-1.378,5.32v.38Z" transform="translate(357.222 731.947)" fill="#d72228"/>
        <path id="Path_107" data-name="Path 107" d="M2.6,12.028H54.853a14.9,14.9,0,0,0,4.6-.722A13.2,13.2,0,0,0,63.4,9.293,9.766,9.766,0,0,0,66.132,6.1a8.966,8.966,0,0,0,1.025-4.329V-3.011a2.785,2.785,0,0,0-.38-1.253A11.731,11.731,0,0,0,65.9-5.669a13.1,13.1,0,0,0-1.063-1.291,9.72,9.72,0,0,0-.949-.911,16.433,16.433,0,0,0,2.089-2.2,4.361,4.361,0,0,0,1.177-2.658v-4.785a9.028,9.028,0,0,0-1.025-4.291A9.648,9.648,0,0,0,63.4-25.038a13.2,13.2,0,0,0-3.95-2.013,14.9,14.9,0,0,0-4.6-.722H2.6v10.406H56.372v4.481H2.6ZM13.382-2.935h42.99V1.622H13.382ZM74.6,1.774A8.966,8.966,0,0,0,75.626,6.1a9.766,9.766,0,0,0,2.734,3.19,13.3,13.3,0,0,0,3.912,2.013,14.788,14.788,0,0,0,4.633.722h52.256V1.546H85.386V-2.935h53.775v-9.95H74.6Zm64.561-19.14V-27.772H86.906a14.793,14.793,0,0,0-4.405.684,13.137,13.137,0,0,0-3.95,1.975,10.429,10.429,0,0,0-2.848,3.19,8.322,8.322,0,0,0-1.1,4.253v.3ZM200.38-2.935V12.028h10.785v-29.7a8.322,8.322,0,0,0-1.1-4.253,10.429,10.429,0,0,0-2.848-3.19,13.137,13.137,0,0,0-3.95-1.975,14.793,14.793,0,0,0-4.405-.684H158.986a14.793,14.793,0,0,0-4.405.684,13.137,13.137,0,0,0-3.95,1.975,10.429,10.429,0,0,0-2.848,3.19,8.322,8.322,0,0,0-1.1,4.253v.3h53.7v4.481h-42.99v-4.481H146.681l-.076,29.394h10.785V-2.935Zm72,0V1.622H218.609V12.028h52.256a14.9,14.9,0,0,0,4.6-.722,13.2,13.2,0,0,0,3.95-2.013,9.767,9.767,0,0,0,2.734-3.19,8.966,8.966,0,0,0,1.025-4.329V-3.847a7.254,7.254,0,0,0-.949-3.646,9.3,9.3,0,0,0-2.506-2.848,12.463,12.463,0,0,0-3.608-1.861,13.362,13.362,0,0,0-4.253-.684H218.609v.987a7.048,7.048,0,0,0,.949,3.608,9.921,9.921,0,0,0,2.506,2.848,11.334,11.334,0,0,0,3.608,1.861,14.08,14.08,0,0,0,4.253.646ZM283.17-17.366V-27.772H230.914a14.788,14.788,0,0,0-4.633.722,12.356,12.356,0,0,0-3.912,2.089,10.447,10.447,0,0,0-2.734,3.3,9.028,9.028,0,0,0-1.025,4.291Zm45.192,29.394V-17.29h26.812V-27.772H290.613V-17.29h26.964V12.028Z" transform="translate(359.625 650.919)" fill="#fff"/>
      </g>
      <g id="Group_17" data-name="Group 17" transform="translate(208.222 -45.053)">
        <path id="Path_136" data-name="Path 136" d="M9.48.42A19.414,19.414,0,0,1,4.53-.21,12.175,12.175,0,0,1,.63-1.89L2.58-6.27a12.618,12.618,0,0,0,3.27,1.5,12.448,12.448,0,0,0,3.66.57q3.42,0,3.42-1.71a1.416,1.416,0,0,0-.975-1.335A17.93,17.93,0,0,0,8.82-8.16a29.922,29.922,0,0,1-3.96-1.1A6.665,6.665,0,0,1,2.13-11.13,5.066,5.066,0,0,1,.99-14.61a6.024,6.024,0,0,1,1.05-3.465A7.026,7.026,0,0,1,5.175-20.52a12.9,12.9,0,0,1,5.115-.9,18.043,18.043,0,0,1,4.08.465,12.494,12.494,0,0,1,3.54,1.365l-1.83,4.41a12.225,12.225,0,0,0-5.82-1.62,4.879,4.879,0,0,0-2.58.525,1.574,1.574,0,0,0-.81,1.365,1.353,1.353,0,0,0,.96,1.26,17.358,17.358,0,0,0,3.09.87,28.947,28.947,0,0,1,3.975,1.1,6.864,6.864,0,0,1,2.73,1.86A4.968,4.968,0,0,1,18.78-6.36a5.907,5.907,0,0,1-1.05,3.42A7.157,7.157,0,0,1,14.58-.5,12.741,12.741,0,0,1,9.48.42Zm46.5,0A12.56,12.56,0,0,1,50-.99a10.594,10.594,0,0,1-4.17-3.9A10.578,10.578,0,0,1,44.31-10.5a10.578,10.578,0,0,1,1.515-5.61A10.594,10.594,0,0,1,50-20.01a12.56,12.56,0,0,1,5.985-1.41,12.56,12.56,0,0,1,5.985,1.41,10.594,10.594,0,0,1,4.17,3.9A10.578,10.578,0,0,1,67.65-10.5a10.578,10.578,0,0,1-1.515,5.61,10.594,10.594,0,0,1-4.17,3.9A12.56,12.56,0,0,1,55.98.42Zm0-4.92a5.625,5.625,0,0,0,2.88-.75A5.4,5.4,0,0,0,60.9-7.365a6.4,6.4,0,0,0,.75-3.135,6.4,6.4,0,0,0-.75-3.135,5.4,5.4,0,0,0-2.04-2.115,5.625,5.625,0,0,0-2.88-.75,5.625,5.625,0,0,0-2.88.75,5.4,5.4,0,0,0-2.04,2.115,6.4,6.4,0,0,0-.75,3.135,6.4,6.4,0,0,0,.75,3.135A5.4,5.4,0,0,0,53.1-5.25,5.625,5.625,0,0,0,55.98-4.5Zm44.61-11.91v4.62h9.27V-7.2h-9.27V0H94.65V-21h16.47v4.59Zm41.82.12h-6.45V-21h18.81v4.71h-6.42V0h-5.94ZM213.3-21,206.49,0h-6.36l-4.02-12.78L191.91,0h-6.36l-6.81-21h6.12l4.23,13.41L193.53-21h5.46l4.23,13.53L207.63-21ZM252.66-4.08h-8.88L242.13,0h-6.06l9.27-21h5.85l9.3,21h-6.18Zm-1.74-4.38-2.7-6.72-2.7,6.72Zm44.31,2.88h-3.24V0h-5.94V-21h9.6a11.977,11.977,0,0,1,4.95.945,7.341,7.341,0,0,1,3.24,2.7,7.4,7.4,0,0,1,1.14,4.125,7.314,7.314,0,0,1-1.065,3.975A7.2,7.2,0,0,1,300.87-6.6L305.4,0h-6.36Zm3.75-7.65a2.862,2.862,0,0,0-.93-2.28,4.1,4.1,0,0,0-2.76-.81h-3.3v6.15h3.3a4.15,4.15,0,0,0,2.76-.8A2.817,2.817,0,0,0,298.98-13.23Zm50.01,8.64V0H332.13V-21H348.6v4.59H338.01v3.54h9.33v4.44h-9.33v3.84Z" transform="translate(155 832)" fill="#7b7b7b"/>
        <path id="Path_138" data-name="Path 138" d="M18.382-18.2V0H16.25L5.33-13.572V0H2.73V-18.2H4.862L15.782-4.628V-18.2ZM50.752-2.262V0H37.544V-18.2H50.388v2.262H40.144v5.59H49.27v2.21H40.144v5.876ZM84.214-18.2,76.232,0H73.658L65.65-18.2h2.808L75.01-3.25l6.6-14.95ZM113.438-2.262V0H100.23V-18.2h12.844v2.262H102.83v5.59h9.126v2.21H102.83v5.876ZM143.52,0l-3.926-5.59q-.728.052-1.144.052h-4.5V0h-2.6V-18.2h7.1a8.431,8.431,0,0,1,5.564,1.69,5.732,5.732,0,0,1,2.028,4.654A6.087,6.087,0,0,1,145-8.268a5.876,5.876,0,0,1-2.964,2.158L146.354,0Zm-5.148-7.748a5.817,5.817,0,0,0,3.77-1.066,3.71,3.71,0,0,0,1.3-3.042,3.672,3.672,0,0,0-1.3-3.029,5.868,5.868,0,0,0-3.77-1.053h-4.42v8.19ZM189.956.208a12.456,12.456,0,0,1-3.965-.637,8.142,8.142,0,0,1-3-1.651l.962-2.028a7.966,7.966,0,0,0,2.665,1.521A9.792,9.792,0,0,0,189.956-2a6.018,6.018,0,0,0,3.38-.767,2.364,2.364,0,0,0,1.118-2.041,2.011,2.011,0,0,0-.611-1.521,4.086,4.086,0,0,0-1.508-.9q-.9-.312-2.535-.7a26.123,26.123,0,0,1-3.315-.988,5.481,5.481,0,0,1-2.158-1.521,4.062,4.062,0,0,1-.9-2.769,4.685,4.685,0,0,1,.767-2.626,5.268,5.268,0,0,1,2.327-1.872,9.439,9.439,0,0,1,3.874-.7,12.259,12.259,0,0,1,3.172.416,8.439,8.439,0,0,1,2.678,1.2l-.858,2.08a9.413,9.413,0,0,0-2.444-1.1A9.122,9.122,0,0,0,190.4-16.2a5.614,5.614,0,0,0-3.315.806,2.469,2.469,0,0,0-1.1,2.08,1.99,1.99,0,0,0,.624,1.521,4.329,4.329,0,0,0,1.547.91,24.17,24.17,0,0,0,2.509.689,25.414,25.414,0,0,1,3.3.988A5.559,5.559,0,0,1,196.1-7.7a3.972,3.972,0,0,1,.9,2.73,4.647,4.647,0,0,1-.78,2.613,5.225,5.225,0,0,1-2.366,1.872A9.787,9.787,0,0,1,189.956.208ZM214.5-18.2h2.6V-2.262h9.854V0H214.5ZM256.854-2.262V0H243.646V-18.2H256.49v2.262H246.246v5.59h9.126v2.21h-9.126v5.876Zm31.122,0V0H274.768V-18.2h12.844v2.262H277.368v5.59h9.126v2.21h-9.126v5.876ZM312.988-18.2a8.431,8.431,0,0,1,5.564,1.69,5.732,5.732,0,0,1,2.028,4.654A5.732,5.732,0,0,1,318.552-7.2a8.431,8.431,0,0,1-5.564,1.69h-4.5V0h-2.6V-18.2ZM312.91-7.774a5.868,5.868,0,0,0,3.77-1.053,3.672,3.672,0,0,0,1.3-3.029,3.672,3.672,0,0,0-1.3-3.029,5.868,5.868,0,0,0-3.77-1.053h-4.42v8.164ZM343.668.208A12.456,12.456,0,0,1,339.7-.429a8.142,8.142,0,0,1-3-1.651l.962-2.028a7.966,7.966,0,0,0,2.665,1.521A9.792,9.792,0,0,0,343.668-2a6.018,6.018,0,0,0,3.38-.767,2.364,2.364,0,0,0,1.118-2.041,2.011,2.011,0,0,0-.611-1.521,4.086,4.086,0,0,0-1.508-.9q-.9-.312-2.535-.7a26.124,26.124,0,0,1-3.315-.988,5.481,5.481,0,0,1-2.158-1.521,4.062,4.062,0,0,1-.9-2.769,4.685,4.685,0,0,1,.767-2.626,5.268,5.268,0,0,1,2.327-1.872,9.439,9.439,0,0,1,3.874-.7,12.259,12.259,0,0,1,3.172.416,8.439,8.439,0,0,1,2.678,1.2l-.858,2.08a9.413,9.413,0,0,0-2.444-1.1,9.122,9.122,0,0,0-2.548-.377,5.614,5.614,0,0,0-3.315.806,2.469,2.469,0,0,0-1.105,2.08,1.99,1.99,0,0,0,.624,1.521,4.329,4.329,0,0,0,1.547.91,24.17,24.17,0,0,0,2.509.689,25.414,25.414,0,0,1,3.3.988A5.559,5.559,0,0,1,349.817-7.7a3.972,3.972,0,0,1,.9,2.73,4.647,4.647,0,0,1-.78,2.613,5.225,5.225,0,0,1-2.366,1.872A9.787,9.787,0,0,1,343.668.208Z" transform="translate(153 869)" fill="#7b7b7b"/>
      </g>
    </g>
  </g>
</svg>
