<svg xmlns="http://www.w3.org/2000/svg" width="572.218" height="109.943" viewBox="0 0 572.218 109.943">
  <g id="bc-logo-slogan-horiz" transform="translate(-301.516 -479.733)">
    <path id="Path_106" data-name="Path 106" d="M-154.473-7.834H-186.55a4.935,4.935,0,0,1-3.487-.981,4.247,4.247,0,0,1-1.007-3.151v-4.649a4.149,4.149,0,0,1,1.033-3.022A4.786,4.786,0,0,1-186.5-20.7h32.025v-7.077h-35.538a9.575,9.575,0,0,0-3,.491,9.05,9.05,0,0,0-2.686,1.395,7.283,7.283,0,0,0-1.937,2.221,5.8,5.8,0,0,0-.749,2.918V-7.679a6.1,6.1,0,0,0,.7,2.944,6.642,6.642,0,0,0,1.86,2.169,9.043,9.043,0,0,0,2.66,1.369,10.057,10.057,0,0,0,3.151.491h35.538Zm48.968-12.913a5.8,5.8,0,0,0-.749-2.918,7.283,7.283,0,0,0-1.937-2.221,9.05,9.05,0,0,0-2.686-1.395,9.575,9.575,0,0,0-3-.491h-27.17a9.575,9.575,0,0,0-3,.491,9.05,9.05,0,0,0-2.686,1.395,7.283,7.283,0,0,0-1.937,2.221,5.8,5.8,0,0,0-.749,2.918V-7.679a6.1,6.1,0,0,0,.7,2.944,6.642,6.642,0,0,0,1.86,2.169,9.043,9.043,0,0,0,2.66,1.369,10.057,10.057,0,0,0,3.151.491h27.17a10.133,10.133,0,0,0,3.125-.491,8.98,8.98,0,0,0,2.686-1.369,6.642,6.642,0,0,0,1.86-2.169,6.1,6.1,0,0,0,.7-2.944Zm-11.88.052a4.786,4.786,0,0,1,3.512,1.059,4.149,4.149,0,0,1,1.033,3.022v4.649a4.276,4.276,0,0,1-1.007,3.1,4.767,4.767,0,0,1-3.487,1.033h-20.248a4.935,4.935,0,0,1-3.487-.981,4.247,4.247,0,0,1-1.007-3.151v-4.649a4.149,4.149,0,0,1,1.033-3.022,4.786,4.786,0,0,1,3.512-1.059ZM-56.538-7.679V-20.747a5.8,5.8,0,0,0-.749-2.918,7.283,7.283,0,0,0-1.937-2.221,9.05,9.05,0,0,0-2.686-1.395,9.575,9.575,0,0,0-3-.491h-35.538V-20.7h32.025a4.786,4.786,0,0,1,3.512,1.059,4.149,4.149,0,0,1,1.033,3.022v4.649a4.276,4.276,0,0,1-1.007,3.1,4.767,4.767,0,0,1-3.487,1.033H-93.109v-9.814h-7.335V-.706h35.538A10.133,10.133,0,0,0-61.781-1.2,8.98,8.98,0,0,0-59.1-2.565a6.642,6.642,0,0,0,1.86-2.169A6.1,6.1,0,0,0-56.538-7.679Zm5.062,0a6.1,6.1,0,0,0,.7,2.944,6.642,6.642,0,0,0,1.86,2.169A9.043,9.043,0,0,0-46.259-1.2a10.057,10.057,0,0,0,3.151.491H-7.571V-7.834H-44.142v-3.048H-7.571v-6.767H-51.476ZM-7.571-20.7v-7.077H-43.108a10.06,10.06,0,0,0-3,.465,8.934,8.934,0,0,0-2.686,1.343,7.092,7.092,0,0,0-1.937,2.169,5.659,5.659,0,0,0-.749,2.893v.207Z" transform="translate(880.999 535.792)" fill="#d72228"/>
    <path id="Path_105" data-name="Path 105" d="M2.6-.706H38.135A10.133,10.133,0,0,0,41.26-1.2a8.98,8.98,0,0,0,2.686-1.369,6.642,6.642,0,0,0,1.86-2.169,6.1,6.1,0,0,0,.7-2.944v-3.254a1.894,1.894,0,0,0-.258-.852,7.978,7.978,0,0,0-.594-.956,8.91,8.91,0,0,0-.723-.878,6.611,6.611,0,0,0-.646-.62,11.176,11.176,0,0,0,1.42-1.5,2.966,2.966,0,0,0,.8-1.808V-20.8a6.14,6.14,0,0,0-.7-2.918,6.561,6.561,0,0,0-1.86-2.2,8.98,8.98,0,0,0-2.686-1.369,10.133,10.133,0,0,0-3.125-.491H2.6V-20.7H39.168v3.048H2.6ZM9.932-10.881H39.168v3.1H9.932Zm41.633,3.2a6.1,6.1,0,0,0,.7,2.944,6.642,6.642,0,0,0,1.86,2.169A9.043,9.043,0,0,0,56.782-1.2a10.057,10.057,0,0,0,3.151.491H95.47V-7.834H58.9v-3.048H95.47v-6.767H51.565ZM95.47-20.7v-7.077H59.932a10.06,10.06,0,0,0-3,.465,8.934,8.934,0,0,0-2.686,1.343,7.092,7.092,0,0,0-1.937,2.169,5.659,5.659,0,0,0-.749,2.893v.207ZM137.1-10.881V-.706h7.335V-20.9a5.659,5.659,0,0,0-.749-2.893,7.093,7.093,0,0,0-1.937-2.169,8.934,8.934,0,0,0-2.686-1.343,10.06,10.06,0,0,0-3-.465H108.952a10.06,10.06,0,0,0-3,.465,8.934,8.934,0,0,0-2.686,1.343,7.092,7.092,0,0,0-1.937,2.169,5.659,5.659,0,0,0-.749,2.893v.207H137.1v3.048H107.867V-20.7h-7.283l-.052,19.99h7.335V-10.881Zm48.968,0v3.1H149.5V-.706h35.538a10.133,10.133,0,0,0,3.125-.491,8.98,8.98,0,0,0,2.686-1.369,6.642,6.642,0,0,0,1.86-2.169,6.1,6.1,0,0,0,.7-2.944V-11.5a4.933,4.933,0,0,0-.646-2.479,6.323,6.323,0,0,0-1.7-1.937,8.476,8.476,0,0,0-2.454-1.266,9.087,9.087,0,0,0-2.893-.465H149.5v.671a4.793,4.793,0,0,0,.646,2.454,6.747,6.747,0,0,0,1.7,1.937A7.708,7.708,0,0,0,154.3-11.32a9.575,9.575,0,0,0,2.893.439Zm7.335-9.814v-7.077H157.868a10.057,10.057,0,0,0-3.151.491,8.4,8.4,0,0,0-2.66,1.42,7.1,7.1,0,0,0-1.86,2.247,6.139,6.139,0,0,0-.7,2.918ZM224.139-.706V-20.644h18.234v-7.128H198.467v7.128H216.8V-.706Z" transform="translate(435.376 535.792)"/>
    <g id="text">
      <path id="Path_135" data-name="Path 135" d="M5.634.216A10.309,10.309,0,0,1,2.745-.189,6.776,6.776,0,0,1,.5-1.242l.99-2.2a6.718,6.718,0,0,0,1.926.954,7.234,7.234,0,0,0,2.232.36,3.566,3.566,0,0,0,1.836-.369,1.115,1.115,0,0,0,.594-.981.938.938,0,0,0-.351-.747,2.661,2.661,0,0,0-.9-.477q-.549-.18-1.485-.4a20.528,20.528,0,0,1-2.358-.684,3.831,3.831,0,0,1-1.575-1.1A2.965,2.965,0,0,1,.756-8.892a3.507,3.507,0,0,1,.594-1.989,4,4,0,0,1,1.791-1.413,7.308,7.308,0,0,1,2.925-.522,9.685,9.685,0,0,1,2.358.288,6.966,6.966,0,0,1,2.016.828l-.9,2.214a7.026,7.026,0,0,0-3.492-.99,3.274,3.274,0,0,0-1.809.4,1.209,1.209,0,0,0-.585,1.044,1.021,1.021,0,0,0,.675.963,10.6,10.6,0,0,0,2.061.621,20.528,20.528,0,0,1,2.358.684,3.9,3.9,0,0,1,1.575,1.08,2.9,2.9,0,0,1,.657,2,3.441,3.441,0,0,1-.6,1.971A4.051,4.051,0,0,1,8.568-.306,7.375,7.375,0,0,1,5.634.216Zm22.518,0A7.354,7.354,0,0,1,24.615-.63a6.279,6.279,0,0,1-2.466-2.331A6.364,6.364,0,0,1,21.258-6.3a6.364,6.364,0,0,1,.891-3.339,6.279,6.279,0,0,1,2.466-2.331,7.354,7.354,0,0,1,3.537-.846,7.3,7.3,0,0,1,3.528.846,6.36,6.36,0,0,1,2.466,2.331,6.315,6.315,0,0,1,.9,3.339,6.315,6.315,0,0,1-.9,3.339A6.36,6.36,0,0,1,31.68-.63,7.3,7.3,0,0,1,28.152.216Zm0-2.484a4,4,0,0,0,2.016-.513,3.681,3.681,0,0,0,1.413-1.431A4.207,4.207,0,0,0,32.094-6.3a4.207,4.207,0,0,0-.513-2.088,3.681,3.681,0,0,0-1.413-1.431,4,4,0,0,0-2.016-.513,4,4,0,0,0-2.016.513,3.681,3.681,0,0,0-1.413,1.431A4.207,4.207,0,0,0,24.21-6.3a4.207,4.207,0,0,0,.513,2.088,3.681,3.681,0,0,0,1.413,1.431A4,4,0,0,0,28.152-2.268ZM49.23-10.26v3.33h5.832v2.34H49.23V0H46.314V-12.6h9.522v2.34Zm20.358.036H65.556V-12.6h10.98v2.376H72.5V0H69.588Zm36.4-2.376L101.862,0H98.73L95.958-8.532,93.1,0H89.982l-4.14-12.6h3.024L91.71-3.744,94.68-12.6h2.7l2.88,8.928,2.934-8.928ZM124.56-2.7h-5.85L117.594,0h-2.988l5.616-12.6h2.88L128.736,0h-3.06Zm-.918-2.214-2-4.824-2,4.824ZM147.15,0l-2.43-3.51h-2.682V0h-2.916V-12.6h5.454a7,7,0,0,1,2.907.558,4.319,4.319,0,0,1,1.9,1.584,4.364,4.364,0,0,1,.666,2.43,4.277,4.277,0,0,1-.675,2.421,4.278,4.278,0,0,1-1.917,1.557L150.282,0ZM147.1-8.028a2,2,0,0,0-.684-1.629,3.062,3.062,0,0,0-2-.567h-2.376v4.392h2.376a3.029,3.029,0,0,0,2-.576A2,2,0,0,0,147.1-8.028ZM171.18-2.34V0h-9.756V-12.6h9.522v2.34h-6.624v2.736h5.85v2.268h-5.85V-2.34ZM208.3-12.6V0H205.9L199.62-7.65V0h-2.88V-12.6h2.412l6.264,7.65V-12.6ZM230.112-2.34V0h-9.756V-12.6h9.522v2.34h-6.624v2.736h5.85v2.268h-5.85V-2.34ZM253.44-12.6,247.986,0h-2.88L239.67-12.6h3.15l3.834,9,3.888-9ZM273.312-2.34V0h-9.756V-12.6h9.522v2.34h-6.624v2.736h5.85v2.268h-5.85V-2.34ZM292.734,0,290.3-3.51h-2.682V0h-2.916V-12.6h5.454a7,7,0,0,1,2.907.558,4.319,4.319,0,0,1,1.9,1.584,4.364,4.364,0,0,1,.666,2.43,4.277,4.277,0,0,1-.675,2.421A4.278,4.278,0,0,1,293.04-4.05L295.866,0Zm-.054-8.028A2,2,0,0,0,292-9.657a3.062,3.062,0,0,0-2-.567h-2.376v4.392H290a3.029,3.029,0,0,0,2-.576A2,2,0,0,0,292.68-8.028ZM325.314.216a10.309,10.309,0,0,1-2.889-.405,6.776,6.776,0,0,1-2.241-1.053l.99-2.2a6.718,6.718,0,0,0,1.926.954,7.234,7.234,0,0,0,2.232.36,3.566,3.566,0,0,0,1.836-.369,1.115,1.115,0,0,0,.594-.981.938.938,0,0,0-.351-.747,2.661,2.661,0,0,0-.9-.477q-.549-.18-1.485-.4a20.528,20.528,0,0,1-2.358-.684,3.831,3.831,0,0,1-1.575-1.1,2.965,2.965,0,0,1-.657-2.016,3.507,3.507,0,0,1,.594-1.989,4,4,0,0,1,1.791-1.413,7.308,7.308,0,0,1,2.925-.522,9.685,9.685,0,0,1,2.358.288,6.966,6.966,0,0,1,2.016.828l-.9,2.214a7.026,7.026,0,0,0-3.492-.99,3.274,3.274,0,0,0-1.809.4,1.209,1.209,0,0,0-.585,1.044,1.021,1.021,0,0,0,.675.963,10.6,10.6,0,0,0,2.061.621,20.528,20.528,0,0,1,2.358.684A3.9,3.9,0,0,1,330-5.688a2.9,2.9,0,0,1,.657,2,3.441,3.441,0,0,1-.6,1.971,4.051,4.051,0,0,1-1.809,1.413A7.375,7.375,0,0,1,325.314.216ZM341.73-12.6h2.916V-2.376h6.318V0H341.73Zm29.7,10.26V0h-9.756V-12.6H371.2v2.34h-6.624v2.736h5.85v2.268h-5.85V-2.34Zm21.15,0V0h-9.756V-12.6h9.522v2.34h-6.624v2.736h5.85v2.268h-5.85V-2.34ZM409.428-12.6a7,7,0,0,1,2.907.558,4.319,4.319,0,0,1,1.9,1.584,4.364,4.364,0,0,1,.666,2.43,4.375,4.375,0,0,1-.666,2.421,4.242,4.242,0,0,1-1.9,1.584,7.1,7.1,0,0,1-2.907.549H406.89V0h-2.916V-12.6Zm-.162,6.75a3.062,3.062,0,0,0,2-.567,1.975,1.975,0,0,0,.684-1.611,2,2,0,0,0-.684-1.629,3.062,3.062,0,0,0-2-.567H406.89V-5.85Zm21.1,6.066a10.309,10.309,0,0,1-2.889-.405,6.776,6.776,0,0,1-2.241-1.053l.99-2.2a6.718,6.718,0,0,0,1.926.954,7.234,7.234,0,0,0,2.232.36,3.566,3.566,0,0,0,1.836-.369,1.115,1.115,0,0,0,.594-.981.938.938,0,0,0-.351-.747,2.661,2.661,0,0,0-.9-.477q-.549-.18-1.485-.4a20.528,20.528,0,0,1-2.358-.684,3.831,3.831,0,0,1-1.575-1.1,2.965,2.965,0,0,1-.657-2.016,3.507,3.507,0,0,1,.594-1.989,4,4,0,0,1,1.791-1.413,7.308,7.308,0,0,1,2.925-.522,9.685,9.685,0,0,1,2.358.288,6.966,6.966,0,0,1,2.016.828l-.9,2.214a7.026,7.026,0,0,0-3.492-.99,3.274,3.274,0,0,0-1.809.4,1.209,1.209,0,0,0-.585,1.044,1.021,1.021,0,0,0,.675.963,10.6,10.6,0,0,0,2.061.621,20.528,20.528,0,0,1,2.358.684,3.9,3.9,0,0,1,1.575,1.08,2.9,2.9,0,0,1,.657,2,3.441,3.441,0,0,1-.6,1.971A4.051,4.051,0,0,1,433.3-.306,7.375,7.375,0,0,1,430.362.216Z" transform="translate(438.026 565.021)" fill="#7b7b7b"/>
    </g>
    <g id="benjo" transform="translate(301.973 480.021)">
      <path id="BC-DH" d="M61.115,83.084l-6.752-3.3a32.529,32.529,0,0,1-11.553.752q4.88-2.669,5.1-4.98a90.224,90.224,0,0,1-24.029,2.047c6.368-2.15,13.905-8.046,13.905-8.046L25.414,62.477s11.892-7.414,12.255-12.41c-.4-.945-3.446-3.646-3.344-3.627C19.636,31.942,7.784,17.636,0,0,12.661,17.957,31.821,34.425,51.907,46.418l16.142,6.188c2.55,1.148,1.507,0,2.762,4.715L87.9,61.945V60.189L98.236,64.2c.178.085-6.481,5.3-14.061,11.344l.9-2.251-.735-2.343s.07-.363-7.424-2.273c-5.081-1.373-13.1-3.829-13.1-3.829L59,66.308l3.047,1.431v.936c4.6,14.3,5.692,14.315,12.569,14.056L60.517,93.4C62.069,89.388,62.07,85.282,61.115,83.084Zm.931-25.765,6.547,1.223L65.421,57.32,63.4,55.677,59,54.093ZM45.962,38.583c-2.679-4.808-3.98-7.391-12.53-29.141,8.059,15.742,18.006,30.233,27.362,37.694l-8.86-3.824Z" fill="#d72228"/>
      <path id="Path_112" data-name="Path 112" d="M49.12,98.239a49.51,49.51,0,0,1-9.9-1A48.856,48.856,0,0,1,21.656,89.85,49.263,49.263,0,0,1,3.86,68.239,48.877,48.877,0,0,1,1,59.019a49.609,49.609,0,0,1,0-19.8A48.849,48.849,0,0,1,8.1,22.091L11.993,26.7a43.371,43.371,0,1,0,18.15-16.586L27.789,4.861c.732-.353,1.475-.69,2.211-1A48.877,48.877,0,0,1,39.22,1a49.609,49.609,0,0,1,19.8,0A48.856,48.856,0,0,1,76.583,8.389,49.263,49.263,0,0,1,94.379,30a48.877,48.877,0,0,1,2.862,9.22,49.609,49.609,0,0,1,0,19.8A48.856,48.856,0,0,1,89.85,76.583a49.263,49.263,0,0,1-21.611,17.8,48.877,48.877,0,0,1-9.22,2.862A49.51,49.51,0,0,1,49.12,98.239ZM18.748,18.17h0L14.7,14.076a49.539,49.539,0,0,1,6.956-5.687c.788-.532,1.6-1.049,2.425-1.537l2.337,5.311a43.723,43.723,0,0,0-7.669,6.007Z" transform="translate(10.915 10.916)" fill="#d72228"/>
    </g>
    <path id="Path_143" data-name="Path 143" d="M-601.891,712.177a48.933,48.933,0,0,1-9.22-2.862,49.148,49.148,0,0,1-8.344-4.529,49.547,49.547,0,0,1-7.269-6,49.449,49.449,0,0,1-6-7.27,49.17,49.17,0,0,1-4.529-8.343,48.8,48.8,0,0,1-2.862-9.22,49.491,49.491,0,0,1-1-9.9,49.493,49.493,0,0,1,1-9.9,48.8,48.8,0,0,1,2.862-9.221,49.114,49.114,0,0,1,4.239-7.909l3.893,4.607a43.245,43.245,0,0,0-6.255,22.423,43.431,43.431,0,0,0,43.382,43.382,43.431,43.431,0,0,0,43.383-43.382,43.431,43.431,0,0,0-43.383-43.383,42.87,42.87,0,0,0-18.977,4.375l-2.354-5.251c.732-.354,1.475-.69,2.21-1a48.933,48.933,0,0,1,9.22-2.862,49.491,49.491,0,0,1,9.9-1,49.493,49.493,0,0,1,9.9,1,48.9,48.9,0,0,1,9.22,2.862,49.145,49.145,0,0,1,8.344,4.529,49.606,49.606,0,0,1,7.27,6,49.493,49.493,0,0,1,6,7.27,49.041,49.041,0,0,1,4.529,8.343,48.87,48.87,0,0,1,2.863,9.221,49.493,49.493,0,0,1,1,9.9,49.491,49.491,0,0,1-1,9.9,48.869,48.869,0,0,1-2.863,9.22,49.042,49.042,0,0,1-4.529,8.343,49.5,49.5,0,0,1-6,7.27,49.551,49.551,0,0,1-7.27,6,49.15,49.15,0,0,1-8.344,4.529,48.9,48.9,0,0,1-9.22,2.862,49.493,49.493,0,0,1-9.9,1A49.484,49.484,0,0,1-601.891,712.177Zm10.979-25.072-6.752-3.3a32.518,32.518,0,0,1-11.553.751q4.88-2.669,5.1-4.98a90.257,90.257,0,0,1-24.029,2.047c6.367-2.15,13.906-8.047,13.906-8.047l-12.369-7.081s11.892-7.413,12.254-12.409c-.4-.946-3.446-3.647-3.344-3.627-14.689-14.5-26.54-28.8-34.324-46.441,12.661,17.958,31.82,34.425,51.907,46.418l16.141,6.188c2.551,1.147,1.507-.005,2.762,4.714l17.085,4.624V664.21l10.34,4.013c.178.085-6.481,5.3-14.061,11.344l.9-2.252-.735-2.343s.07-.364-7.424-2.273c-5.081-1.372-13.1-3.83-13.1-3.83l-4.813,1.46,3.047,1.431v.937c4.6,14.3,5.692,14.315,12.569,14.056l-14.1,10.664C-589.958,693.409-589.956,689.3-590.912,687.105Zm.931-25.765,6.547,1.223-3.172-1.222-2.018-1.643-4.4-1.584Zm-10.112-14.009-5.972-4.729c-2.678-4.808-3.98-7.391-12.53-29.141,8.06,15.742,18.006,30.233,27.363,37.694Zm-22.271-14.225-4.048-4.094a49.567,49.567,0,0,1,6.956-5.687c.788-.532,1.6-1.049,2.426-1.536l2.336,5.311a43.7,43.7,0,0,0-7.669,6.007h0Z" transform="translate(954 -124)" fill="#d72228" stroke="rgba(0,0,0,0)" stroke-width="1"/>
    <path id="Path_140" data-name="Path 140" d="M5.634.216A10.309,10.309,0,0,1,2.745-.189,6.776,6.776,0,0,1,.5-1.242l.99-2.2a6.718,6.718,0,0,0,1.926.954,7.234,7.234,0,0,0,2.232.36,3.566,3.566,0,0,0,1.836-.369,1.115,1.115,0,0,0,.594-.981.938.938,0,0,0-.351-.747,2.661,2.661,0,0,0-.9-.477q-.549-.18-1.485-.4a20.528,20.528,0,0,1-2.358-.684,3.831,3.831,0,0,1-1.575-1.1A2.965,2.965,0,0,1,.756-8.892a3.507,3.507,0,0,1,.594-1.989,4,4,0,0,1,1.791-1.413,7.308,7.308,0,0,1,2.925-.522,9.685,9.685,0,0,1,2.358.288,6.966,6.966,0,0,1,2.016.828l-.9,2.214a7.026,7.026,0,0,0-3.492-.99,3.274,3.274,0,0,0-1.809.4,1.209,1.209,0,0,0-.585,1.044,1.021,1.021,0,0,0,.675.963,10.6,10.6,0,0,0,2.061.621,20.528,20.528,0,0,1,2.358.684,3.9,3.9,0,0,1,1.575,1.08,2.9,2.9,0,0,1,.657,2,3.441,3.441,0,0,1-.6,1.971A4.051,4.051,0,0,1,8.568-.306,7.375,7.375,0,0,1,5.634.216Zm22.518,0A7.354,7.354,0,0,1,24.615-.63a6.279,6.279,0,0,1-2.466-2.331A6.364,6.364,0,0,1,21.258-6.3a6.364,6.364,0,0,1,.891-3.339,6.279,6.279,0,0,1,2.466-2.331,7.354,7.354,0,0,1,3.537-.846,7.3,7.3,0,0,1,3.528.846,6.36,6.36,0,0,1,2.466,2.331,6.315,6.315,0,0,1,.9,3.339,6.315,6.315,0,0,1-.9,3.339A6.36,6.36,0,0,1,31.68-.63,7.3,7.3,0,0,1,28.152.216Zm0-2.484a4,4,0,0,0,2.016-.513,3.681,3.681,0,0,0,1.413-1.431A4.207,4.207,0,0,0,32.094-6.3a4.207,4.207,0,0,0-.513-2.088,3.681,3.681,0,0,0-1.413-1.431,4,4,0,0,0-2.016-.513,4,4,0,0,0-2.016.513,3.681,3.681,0,0,0-1.413,1.431A4.207,4.207,0,0,0,24.21-6.3a4.207,4.207,0,0,0,.513,2.088,3.681,3.681,0,0,0,1.413,1.431A4,4,0,0,0,28.152-2.268ZM49.23-10.26v3.33h5.832v2.34H49.23V0H46.314V-12.6h9.522v2.34Zm20.358.036H65.556V-12.6h10.98v2.376H72.5V0H69.588Zm36.4-2.376L101.862,0H98.73L95.958-8.532,93.1,0H89.982l-4.14-12.6h3.024L91.71-3.744,94.68-12.6h2.7l2.88,8.928,2.934-8.928ZM124.56-2.7h-5.85L117.594,0h-2.988l5.616-12.6h2.88L128.736,0h-3.06Zm-.918-2.214-2-4.824-2,4.824ZM147.15,0l-2.43-3.51h-2.682V0h-2.916V-12.6h5.454a7,7,0,0,1,2.907.558,4.319,4.319,0,0,1,1.9,1.584,4.364,4.364,0,0,1,.666,2.43,4.277,4.277,0,0,1-.675,2.421,4.278,4.278,0,0,1-1.917,1.557L150.282,0ZM147.1-8.028a2,2,0,0,0-.684-1.629,3.062,3.062,0,0,0-2-.567h-2.376v4.392h2.376a3.029,3.029,0,0,0,2-.576A2,2,0,0,0,147.1-8.028ZM171.18-2.34V0h-9.756V-12.6h9.522v2.34h-6.624v2.736h5.85v2.268h-5.85V-2.34ZM208.3-12.6V0H205.9L199.62-7.65V0h-2.88V-12.6h2.412l6.264,7.65V-12.6ZM230.112-2.34V0h-9.756V-12.6h9.522v2.34h-6.624v2.736h5.85v2.268h-5.85V-2.34ZM253.44-12.6,247.986,0h-2.88L239.67-12.6h3.15l3.834,9,3.888-9ZM273.312-2.34V0h-9.756V-12.6h9.522v2.34h-6.624v2.736h5.85v2.268h-5.85V-2.34ZM292.734,0,290.3-3.51h-2.682V0h-2.916V-12.6h5.454a7,7,0,0,1,2.907.558,4.319,4.319,0,0,1,1.9,1.584,4.364,4.364,0,0,1,.666,2.43,4.277,4.277,0,0,1-.675,2.421A4.278,4.278,0,0,1,293.04-4.05L295.866,0Zm-.054-8.028A2,2,0,0,0,292-9.657a3.062,3.062,0,0,0-2-.567h-2.376v4.392H290a3.029,3.029,0,0,0,2-.576A2,2,0,0,0,292.68-8.028ZM325.314.216a10.309,10.309,0,0,1-2.889-.405,6.776,6.776,0,0,1-2.241-1.053l.99-2.2a6.718,6.718,0,0,0,1.926.954,7.234,7.234,0,0,0,2.232.36,3.566,3.566,0,0,0,1.836-.369,1.115,1.115,0,0,0,.594-.981.938.938,0,0,0-.351-.747,2.661,2.661,0,0,0-.9-.477q-.549-.18-1.485-.4a20.528,20.528,0,0,1-2.358-.684,3.831,3.831,0,0,1-1.575-1.1,2.965,2.965,0,0,1-.657-2.016,3.507,3.507,0,0,1,.594-1.989,4,4,0,0,1,1.791-1.413,7.308,7.308,0,0,1,2.925-.522,9.685,9.685,0,0,1,2.358.288,6.966,6.966,0,0,1,2.016.828l-.9,2.214a7.026,7.026,0,0,0-3.492-.99,3.274,3.274,0,0,0-1.809.4,1.209,1.209,0,0,0-.585,1.044,1.021,1.021,0,0,0,.675.963,10.6,10.6,0,0,0,2.061.621,20.528,20.528,0,0,1,2.358.684A3.9,3.9,0,0,1,330-5.688a2.9,2.9,0,0,1,.657,2,3.441,3.441,0,0,1-.6,1.971,4.051,4.051,0,0,1-1.809,1.413A7.375,7.375,0,0,1,325.314.216ZM341.73-12.6h2.916V-2.376h6.318V0H341.73Zm29.7,10.26V0h-9.756V-12.6H371.2v2.34h-6.624v2.736h5.85v2.268h-5.85V-2.34Zm21.15,0V0h-9.756V-12.6h9.522v2.34h-6.624v2.736h5.85v2.268h-5.85V-2.34ZM409.428-12.6a7,7,0,0,1,2.907.558,4.319,4.319,0,0,1,1.9,1.584,4.364,4.364,0,0,1,.666,2.43,4.375,4.375,0,0,1-.666,2.421,4.242,4.242,0,0,1-1.9,1.584,7.1,7.1,0,0,1-2.907.549H406.89V0h-2.916V-12.6Zm-.162,6.75a3.062,3.062,0,0,0,2-.567,1.975,1.975,0,0,0,.684-1.611,2,2,0,0,0-.684-1.629,3.062,3.062,0,0,0-2-.567H406.89V-5.85Zm21.1,6.066a10.309,10.309,0,0,1-2.889-.405,6.776,6.776,0,0,1-2.241-1.053l.99-2.2a6.718,6.718,0,0,0,1.926.954,7.234,7.234,0,0,0,2.232.36,3.566,3.566,0,0,0,1.836-.369,1.115,1.115,0,0,0,.594-.981.938.938,0,0,0-.351-.747,2.661,2.661,0,0,0-.9-.477q-.549-.18-1.485-.4a20.528,20.528,0,0,1-2.358-.684,3.831,3.831,0,0,1-1.575-1.1,2.965,2.965,0,0,1-.657-2.016,3.507,3.507,0,0,1,.594-1.989,4,4,0,0,1,1.791-1.413,7.308,7.308,0,0,1,2.925-.522,9.685,9.685,0,0,1,2.358.288,6.966,6.966,0,0,1,2.016.828l-.9,2.214a7.026,7.026,0,0,0-3.492-.99,3.274,3.274,0,0,0-1.809.4,1.209,1.209,0,0,0-.585,1.044,1.021,1.021,0,0,0,.675.963,10.6,10.6,0,0,0,2.061.621,20.528,20.528,0,0,1,2.358.684,3.9,3.9,0,0,1,1.575,1.08,2.9,2.9,0,0,1,.657,2,3.441,3.441,0,0,1-.6,1.971A4.051,4.051,0,0,1,433.3-.306,7.375,7.375,0,0,1,430.362.216Z" transform="translate(438.026 565.021)" fill="#7b7b7b"/>
    <path id="Path_141" data-name="Path 141" d="M-154.473-7.834H-186.55a4.935,4.935,0,0,1-3.487-.981,4.247,4.247,0,0,1-1.007-3.151v-4.649a4.149,4.149,0,0,1,1.033-3.022A4.786,4.786,0,0,1-186.5-20.7h32.025v-7.077h-35.538a9.575,9.575,0,0,0-3,.491,9.05,9.05,0,0,0-2.686,1.395,7.283,7.283,0,0,0-1.937,2.221,5.8,5.8,0,0,0-.749,2.918V-7.679a6.1,6.1,0,0,0,.7,2.944,6.642,6.642,0,0,0,1.86,2.169,9.043,9.043,0,0,0,2.66,1.369,10.057,10.057,0,0,0,3.151.491h35.538Zm48.968-12.913a5.8,5.8,0,0,0-.749-2.918,7.283,7.283,0,0,0-1.937-2.221,9.05,9.05,0,0,0-2.686-1.395,9.575,9.575,0,0,0-3-.491h-27.17a9.575,9.575,0,0,0-3,.491,9.05,9.05,0,0,0-2.686,1.395,7.283,7.283,0,0,0-1.937,2.221,5.8,5.8,0,0,0-.749,2.918V-7.679a6.1,6.1,0,0,0,.7,2.944,6.642,6.642,0,0,0,1.86,2.169,9.043,9.043,0,0,0,2.66,1.369,10.057,10.057,0,0,0,3.151.491h27.17a10.133,10.133,0,0,0,3.125-.491,8.98,8.98,0,0,0,2.686-1.369,6.642,6.642,0,0,0,1.86-2.169,6.1,6.1,0,0,0,.7-2.944Zm-11.88.052a4.786,4.786,0,0,1,3.512,1.059,4.149,4.149,0,0,1,1.033,3.022v4.649a4.276,4.276,0,0,1-1.007,3.1,4.767,4.767,0,0,1-3.487,1.033h-20.248a4.935,4.935,0,0,1-3.487-.981,4.247,4.247,0,0,1-1.007-3.151v-4.649a4.149,4.149,0,0,1,1.033-3.022,4.786,4.786,0,0,1,3.512-1.059ZM-56.538-7.679V-20.747a5.8,5.8,0,0,0-.749-2.918,7.283,7.283,0,0,0-1.937-2.221,9.05,9.05,0,0,0-2.686-1.395,9.575,9.575,0,0,0-3-.491h-35.538V-20.7h32.025a4.786,4.786,0,0,1,3.512,1.059,4.149,4.149,0,0,1,1.033,3.022v4.649a4.276,4.276,0,0,1-1.007,3.1,4.767,4.767,0,0,1-3.487,1.033H-93.109v-9.814h-7.335V-.706h35.538A10.133,10.133,0,0,0-61.781-1.2,8.98,8.98,0,0,0-59.1-2.565a6.642,6.642,0,0,0,1.86-2.169A6.1,6.1,0,0,0-56.538-7.679Zm5.062,0a6.1,6.1,0,0,0,.7,2.944,6.642,6.642,0,0,0,1.86,2.169A9.043,9.043,0,0,0-46.259-1.2a10.057,10.057,0,0,0,3.151.491H-7.571V-7.834H-44.142v-3.048H-7.571v-6.767H-51.476ZM-7.571-20.7v-7.077H-43.108a10.06,10.06,0,0,0-3,.465,8.934,8.934,0,0,0-2.686,1.343,7.092,7.092,0,0,0-1.937,2.169,5.659,5.659,0,0,0-.749,2.893v.207Z" transform="translate(880.999 535.792)" fill="#d72228"/>
    <path id="Path_142" data-name="Path 142" d="M2.6-.706H38.135A10.133,10.133,0,0,0,41.26-1.2a8.98,8.98,0,0,0,2.686-1.369,6.642,6.642,0,0,0,1.86-2.169,6.1,6.1,0,0,0,.7-2.944v-3.254a1.894,1.894,0,0,0-.258-.852,7.978,7.978,0,0,0-.594-.956,8.91,8.91,0,0,0-.723-.878,6.611,6.611,0,0,0-.646-.62,11.176,11.176,0,0,0,1.42-1.5,2.966,2.966,0,0,0,.8-1.808V-20.8a6.14,6.14,0,0,0-.7-2.918,6.561,6.561,0,0,0-1.86-2.2,8.98,8.98,0,0,0-2.686-1.369,10.133,10.133,0,0,0-3.125-.491H2.6V-20.7H39.168v3.048H2.6ZM9.932-10.881H39.168v3.1H9.932Zm41.633,3.2a6.1,6.1,0,0,0,.7,2.944,6.642,6.642,0,0,0,1.86,2.169A9.043,9.043,0,0,0,56.782-1.2a10.057,10.057,0,0,0,3.151.491H95.47V-7.834H58.9v-3.048H95.47v-6.767H51.565ZM95.47-20.7v-7.077H59.932a10.06,10.06,0,0,0-3,.465,8.934,8.934,0,0,0-2.686,1.343,7.092,7.092,0,0,0-1.937,2.169,5.659,5.659,0,0,0-.749,2.893v.207ZM137.1-10.881V-.706h7.335V-20.9a5.659,5.659,0,0,0-.749-2.893,7.093,7.093,0,0,0-1.937-2.169,8.934,8.934,0,0,0-2.686-1.343,10.06,10.06,0,0,0-3-.465H108.952a10.06,10.06,0,0,0-3,.465,8.934,8.934,0,0,0-2.686,1.343,7.092,7.092,0,0,0-1.937,2.169,5.659,5.659,0,0,0-.749,2.893v.207H137.1v3.048H107.867V-20.7h-7.283l-.052,19.99h7.335V-10.881Zm48.968,0v3.1H149.5V-.706h35.538a10.133,10.133,0,0,0,3.125-.491,8.98,8.98,0,0,0,2.686-1.369,6.642,6.642,0,0,0,1.86-2.169,6.1,6.1,0,0,0,.7-2.944V-11.5a4.933,4.933,0,0,0-.646-2.479,6.323,6.323,0,0,0-1.7-1.937,8.476,8.476,0,0,0-2.454-1.266,9.087,9.087,0,0,0-2.893-.465H149.5v.671a4.793,4.793,0,0,0,.646,2.454,6.747,6.747,0,0,0,1.7,1.937A7.708,7.708,0,0,0,154.3-11.32a9.575,9.575,0,0,0,2.893.439Zm7.335-9.814v-7.077H157.868a10.057,10.057,0,0,0-3.151.491,8.4,8.4,0,0,0-2.66,1.42,7.1,7.1,0,0,0-1.86,2.247,6.139,6.139,0,0,0-.7,2.918ZM224.139-.706V-20.644h18.234v-7.128H198.467v7.128H216.8V-.706Z" transform="translate(435.376 535.792)" fill="#fff"/>
  </g>
</svg>
