<svg xmlns="http://www.w3.org/2000/svg" xmlns:xlink="http://www.w3.org/1999/xlink" width="384" height="384" viewBox="0 0 384 384">
  <defs>
    <clipPath id="clip-Benjo-Transparent-white">
      <rect width="384" height="384"/>
    </clipPath>
  </defs>
  <g id="Benjo-Transparent-white" clip-path="url(#clip-Benjo-Transparent-white)">
    <g id="benjo" transform="translate(56 56)">
      <path id="BC-DH" d="M152.29,207.035l-16.824-8.216a81.057,81.057,0,0,1-28.789,1.873q12.159-6.652,12.7-12.41c-20.13,4.747-40.044,5.775-59.876,5.1,15.867-5.358,34.651-20.05,34.651-20.05L63.329,155.686s29.633-18.474,30.537-30.923c-.994-2.356-8.588-9.085-8.334-9.037C48.93,79.6,19.4,43.948,0,0,31.55,44.748,79.294,85.783,129.345,115.668l40.223,15.419c6.355,2.86,3.755-.012,6.884,11.749l42.574,11.523v-4.374l25.767,10c.444.212-16.15,13.212-35.038,28.267l2.235-5.61-1.832-5.839s.175-.9-18.5-5.665c-12.662-3.421-32.641-9.541-32.641-9.541l-11.994,3.637,7.593,3.566v2.333c11.466,35.645,14.183,35.671,31.32,35.027L150.8,232.732C154.668,222.744,154.672,212.511,152.29,207.035Zm2.32-64.2,16.315,3.047-7.9-3.046-5.03-4.094-10.974-3.948Zm-40.08-46.69c-6.676-11.982-9.919-18.418-31.223-72.617,20.083,39.227,44.868,75.336,68.183,93.928l-22.078-9.529Z" fill="#fff"/>
      <path id="Path_112" data-name="Path 112" d="M122.4,244.8a123.373,123.373,0,0,1-24.668-2.486A121.742,121.742,0,0,1,53.965,223.9,122.758,122.758,0,0,1,9.619,170.044a121.8,121.8,0,0,1-7.133-22.976,123.619,123.619,0,0,1,0-49.336,121.725,121.725,0,0,1,17.7-42.685l9.7,11.48A108.076,108.076,0,1,0,75.111,25.2L69.247,12.113c1.823-.881,3.676-1.719,5.509-2.494A121.8,121.8,0,0,1,97.732,2.486a123.62,123.62,0,0,1,49.336,0A121.744,121.744,0,0,1,190.835,20.9a122.759,122.759,0,0,1,44.345,53.851,121.8,121.8,0,0,1,7.133,22.976,123.621,123.621,0,0,1,0,49.336A121.744,121.744,0,0,1,223.9,190.835a122.758,122.758,0,0,1-53.851,44.345,121.8,121.8,0,0,1-22.976,7.133A123.374,123.374,0,0,1,122.4,244.8ZM46.718,45.279h0L36.63,35.076A123.445,123.445,0,0,1,53.965,20.9c1.963-1.326,4-2.615,6.042-3.829L65.83,30.31A108.953,108.953,0,0,0,46.719,45.277Z" transform="translate(27.2 27.2)" fill="#fff"/>
    </g>
  </g>
</svg>
